<svg width="30" height="30" viewBox="0 0 30 30" fill="none" xmlns="http://www.w3.org/2000/svg">
<path d="M15 21.3281C14.9076 21.3282 14.8162 21.3101 14.7308 21.2748C14.6455 21.2395 14.568 21.1876 14.5028 21.1222L5.12777 11.7472C5.06248 11.6819 5.01068 11.6044 4.97534 11.5191C4.94 11.4338 4.92181 11.3423 4.92181 11.25C4.92181 11.0635 4.9959 10.8846 5.12777 10.7528C5.25964 10.6209 5.4385 10.5468 5.625 10.5468C5.81149 10.5468 5.99035 10.6209 6.12223 10.7528L15 19.6307L23.8778 10.7528C24.0096 10.6209 24.1885 10.5468 24.375 10.5468C24.5615 10.5468 24.7404 10.6209 24.8722 10.7528C25.0041 10.8846 25.0782 11.0635 25.0782 11.25C25.0782 11.4365 25.0041 11.6154 24.8722 11.7472L15.4972 21.1222C15.432 21.1876 15.3545 21.2395 15.2692 21.2748C15.1838 21.3101 15.0924 21.3282 15 21.3281Z" fill="#4F4F4F"/>
</svg>
