<svg width="40" height="40" viewBox="0 0 40 40" fill="none" xmlns="http://www.w3.org/2000/svg">
<path d="M27.5 2.5H12.5C11.5058 2.50112 10.5526 2.89656 9.84958 3.59958C9.14656 4.3026 8.75112 5.25578 8.75 6.25V33.75C8.75112 34.7442 9.14656 35.6974 9.84958 36.4004C10.5526 37.1034 11.5058 37.4989 12.5 37.5H27.5C28.4942 37.4989 29.4474 37.1034 30.1504 36.4004C30.8534 35.6974 31.2489 34.7442 31.25 33.75V6.25C31.2489 5.25578 30.8534 4.3026 30.1504 3.59958C29.4474 2.89656 28.4942 2.50112 27.5 2.5ZM28.75 33.75C28.7496 34.0814 28.6178 34.3991 28.3834 34.6334C28.1491 34.8678 27.8314 34.9996 27.5 35H12.5C12.1686 34.9996 11.8509 34.8678 11.6166 34.6334C11.3822 34.3991 11.2504 34.0814 11.25 33.75V6.25C11.2504 5.91861 11.3822 5.6009 11.6166 5.36657C11.8509 5.13224 12.1686 5.00041 12.5 5H27.5C27.8314 5.00041 28.1491 5.13224 28.3834 5.36657C28.6178 5.6009 28.7496 5.91861 28.75 6.25V33.75ZM21.875 9.375C21.875 9.74584 21.765 10.1084 21.559 10.4167C21.353 10.725 21.0601 10.9654 20.7175 11.1073C20.3749 11.2492 19.9979 11.2863 19.6342 11.214C19.2705 11.1416 18.9364 10.963 18.6742 10.7008C18.412 10.4386 18.2334 10.1045 18.161 9.74079C18.0887 9.37708 18.1258 9.00008 18.2677 8.65747C18.4096 8.31486 18.65 8.02202 18.9583 7.81599C19.2666 7.60997 19.6292 7.5 20 7.5C20.4971 7.50054 20.9737 7.69825 21.3252 8.04977C21.6767 8.40128 21.8745 8.87788 21.875 9.375Z" fill="#4F4F4F"/>
</svg>
