<svg width="40" height="40" viewBox="0 0 40 40" fill="none" xmlns="http://www.w3.org/2000/svg">
<path d="M20 11.25C18.2694 11.25 16.5777 11.7632 15.1387 12.7246C13.6998 13.6861 12.5783 15.0527 11.916 16.6515C11.2538 18.2504 11.0805 20.0097 11.4181 21.707C11.7557 23.4044 12.5891 24.9635 13.8128 26.1872C15.0365 27.4109 16.5956 28.2442 18.2929 28.5819C19.9903 28.9195 21.7496 28.7462 23.3485 28.0839C24.9473 27.4217 26.3139 26.3002 27.2753 24.8612C28.2368 23.4223 28.75 21.7306 28.75 20C28.7473 17.6802 27.8246 15.4561 26.1842 13.8157C24.5439 12.1754 22.3198 11.2526 20 11.25ZM20 26.25C18.7638 26.25 17.5555 25.8834 16.5277 25.1967C15.4999 24.5099 14.6988 23.5338 14.2257 22.3918C13.7527 21.2497 13.6289 19.9931 13.8701 18.7807C14.1112 17.5683 14.7065 16.4547 15.5806 15.5806C16.4546 14.7065 17.5683 14.1112 18.7807 13.8701C19.993 13.6289 21.2497 13.7527 22.3918 14.2257C23.5338 14.6988 24.5099 15.4999 25.1967 16.5277C25.8834 17.5555 26.25 18.7639 26.25 20C26.2481 21.657 25.589 23.2457 24.4173 24.4174C23.2456 25.5891 21.657 26.2481 20 26.25ZM37.229 16.9303C37.1643 16.5641 37.0185 16.217 36.8023 15.9144C36.5861 15.6119 36.305 15.3615 35.9795 15.1816L32.7728 13.4014C32.5671 13.0026 32.3429 12.6136 32.1009 12.2356L32.1626 8.56484C32.1698 8.19345 32.0938 7.82516 31.9402 7.48696C31.7866 7.14876 31.5592 6.84923 31.2748 6.61031C29.6974 5.28172 27.8966 4.24369 25.9564 3.54453C25.6069 3.4174 25.2333 3.37006 24.8631 3.40596C24.4929 3.44187 24.1354 3.56011 23.8169 3.75203L20.6717 5.63921C20.2235 5.6178 19.7746 5.61743 19.3264 5.63812L16.1784 3.74937C15.8604 3.55733 15.5034 3.43894 15.1336 3.40287C14.7638 3.3668 14.3907 3.41398 14.0415 3.54093C12.1022 4.24273 10.3028 5.28319 8.72717 6.6139C8.44234 6.85307 8.21461 7.15292 8.06064 7.49148C7.90668 7.83005 7.83037 8.19876 7.83733 8.57062L7.89904 12.2378C7.65647 12.6153 7.43165 13.004 7.22529 13.4025L4.01592 15.1844C3.68997 15.3646 3.4085 15.6155 3.19217 15.9187C2.97584 16.2219 2.83014 16.5697 2.76576 16.9366C2.40497 18.9652 2.40671 21.0417 2.77092 23.0697C2.83563 23.4359 2.98143 23.783 3.19763 24.0856C3.41383 24.3882 3.69496 24.6387 4.02045 24.8186L7.22717 26.5987C7.4329 26.9976 7.6571 27.3866 7.89904 27.7645L7.83733 31.4352C7.8301 31.8066 7.90608 32.1749 8.0597 32.5131C8.21332 32.8513 8.44069 33.1509 8.72514 33.3898C10.3026 34.7184 12.1033 35.7565 14.0436 36.4556C14.3931 36.5828 14.7666 36.6301 15.1368 36.5942C15.507 36.5583 15.8645 36.4401 16.1831 36.2481L19.3283 34.3609C19.7762 34.3822 20.2264 34.3827 20.6736 34.362L23.8215 36.2508C24.1396 36.4428 24.4966 36.5612 24.8664 36.5972C25.2361 36.6333 25.6093 36.5862 25.9584 36.4592C27.8978 35.7574 29.6971 34.717 31.2728 33.3862C31.5576 33.1471 31.7854 32.8472 31.9393 32.5087C32.0933 32.1701 32.1696 31.8014 32.1626 31.4295L32.1009 27.7623C32.3435 27.3848 32.5683 26.9961 32.7747 26.5977L35.984 24.8159C36.31 24.6357 36.5914 24.3848 36.8077 24.0816C37.024 23.7784 37.1697 23.4306 37.234 23.0637C37.595 21.0351 37.5933 18.9585 37.229 16.9305V16.9303ZM34.7708 22.63L31.2192 24.6014C30.9733 24.7374 30.7808 24.9528 30.6731 25.2123C30.4221 25.725 30.1345 26.2188 29.8125 26.6902C29.6665 26.9039 29.5904 27.1577 29.5947 27.4166L29.6615 31.4745C28.3117 32.615 26.7698 33.5064 25.1078 34.107L21.6247 32.017L21.62 32.0142C21.378 31.8697 21.0942 31.8118 20.815 31.85C20.2479 31.8882 19.6789 31.8859 19.1122 31.843C18.8542 31.8237 18.5965 31.8847 18.3745 32.0177L14.8936 34.1044C13.2309 33.5057 11.688 32.6161 10.3369 31.4772L10.4053 27.4155C10.4105 27.1346 10.3204 26.8602 10.1495 26.6372C9.83101 26.1634 9.54705 25.6674 9.29983 25.1528C9.18771 24.9195 9.0059 24.7267 8.77951 24.6011L5.23201 22.63C4.91929 20.8906 4.91834 19.1095 5.2292 17.3698L8.78076 15.3986C9.02906 15.2612 9.22295 15.043 9.33029 14.7803C9.58059 14.2703 9.86705 13.7788 10.1875 13.3097C10.3335 13.096 10.4095 12.8422 10.4051 12.5834L10.3384 8.52546C11.6883 7.38497 13.2302 6.4936 14.8922 5.89296L18.3753 7.98296L18.38 7.98578C18.622 8.13012 18.9058 8.18802 19.185 8.15C19.752 8.11171 20.3211 8.11406 20.8878 8.15703C21.1458 8.17643 21.4035 8.11541 21.6255 7.98234L25.1064 5.89562C26.769 6.49432 28.3119 7.3839 29.6631 8.52281L29.5947 12.5845C29.5895 12.8654 29.6797 13.1398 29.8506 13.3628C30.1691 13.8366 30.453 14.3327 30.7003 14.8472C30.8123 15.0805 30.994 15.2733 31.2203 15.3989L34.768 17.37C35.0807 19.1094 35.0816 20.8905 34.7708 22.6302V22.63Z" fill="#4F4F4F"/>
</svg>
