<svg width="40" height="40" viewBox="0 0 40 40" fill="none" xmlns="http://www.w3.org/2000/svg">
<path d="M37.4981 32.8125H34.6856V18.053C34.6853 17.7482 34.6215 17.4468 34.4983 17.1681C34.375 16.8894 34.195 16.6395 33.9697 16.4342L21.4687 5.06968C21.067 4.70176 20.542 4.49768 19.9972 4.49768C19.4524 4.49768 18.9274 4.70176 18.5256 5.06968L6.02655 16.4344C5.80124 16.6396 5.6212 16.8895 5.49793 17.1682C5.37466 17.4469 5.31086 17.7482 5.31061 18.053V32.8125H2.49811C2.24947 32.8125 2.01101 32.9113 1.8352 33.0871C1.65938 33.2629 1.56061 33.5014 1.56061 33.75C1.56061 33.9986 1.65938 34.2371 1.8352 34.4129C2.01101 34.5887 2.24947 34.6875 2.49811 34.6875H37.4981C37.7468 34.6875 37.9852 34.5887 38.161 34.4129C38.3368 34.2371 38.4356 33.9986 38.4356 33.75C38.4356 33.5014 38.3368 33.2629 38.161 33.0871C37.9852 32.9113 37.7468 32.8125 37.4981 32.8125ZM7.18561 18.053C7.18565 18.0094 7.19478 17.9664 7.2124 17.9265C7.23002 17.8867 7.25575 17.851 7.28795 17.8217L19.787 6.45687C19.8444 6.40433 19.9194 6.37519 19.9972 6.37519C20.0751 6.37519 20.1501 6.40433 20.2075 6.45687L32.7083 17.8216C32.7404 17.8509 32.7661 17.8866 32.7838 17.9264C32.8014 17.9662 32.8105 18.0093 32.8106 18.0528V32.8125H24.6847V24.9987C24.684 24.4188 24.4533 23.8628 24.0432 23.4527C23.6331 23.0426 23.0771 22.8119 22.4972 22.8112H17.4972C16.9172 22.8119 16.3612 23.0426 15.9511 23.4527C15.541 23.8628 15.3103 24.4188 15.3097 24.9987V32.8125H7.18561V18.053ZM22.8097 32.8125H17.1847V24.9987C17.1848 24.9159 17.2177 24.8365 17.2763 24.7779C17.3349 24.7193 17.4143 24.6863 17.4972 24.6862H22.4972C22.58 24.6863 22.6595 24.7193 22.7181 24.7779C22.7766 24.8365 22.8096 24.9159 22.8097 24.9987V32.8125Z" fill="white"/>
</svg>
