<svg width="40" height="40" viewBox="0 0 40 40" fill="none" xmlns="http://www.w3.org/2000/svg">
<path d="M14.6875 33.75C14.6875 34.1826 14.5592 34.6056 14.3188 34.9653C14.0785 35.325 13.7368 35.6054 13.3371 35.771C12.9374 35.9366 12.4976 35.9799 12.0732 35.8955C11.6489 35.8111 11.2591 35.6027 10.9532 35.2968C10.6473 34.9909 10.4389 34.6011 10.3545 34.1768C10.2701 33.7524 10.3134 33.3126 10.479 32.9129C10.6446 32.5132 10.925 32.1715 11.2847 31.9312C11.6444 31.6908 12.0674 31.5625 12.5 31.5625C13.0802 31.5625 13.6366 31.793 14.0468 32.2032C14.457 32.6134 14.6875 33.1698 14.6875 33.75ZM28.75 31.5625C28.3174 31.5625 27.8944 31.6908 27.5347 31.9312C27.175 32.1715 26.8946 32.5132 26.729 32.9129C26.5634 33.3126 26.5201 33.7524 26.6045 34.1768C26.6889 34.6011 26.8973 34.9909 27.2032 35.2968C27.5091 35.6027 27.8989 35.8111 28.3232 35.8955C28.7476 35.9799 29.1874 35.9366 29.5871 35.771C29.9868 35.6054 30.3285 35.325 30.5688 34.9653C30.8092 34.6056 30.9375 34.1826 30.9375 33.75C30.9375 33.1698 30.707 32.6134 30.2968 32.2032C29.8866 31.793 29.3302 31.5625 28.75 31.5625ZM35.5442 11.5075L31.4195 25.9444C31.2122 26.6614 30.7781 27.2919 30.1822 27.7414C29.5863 28.1909 28.8608 28.4351 28.1144 28.4375H13.1356C12.3892 28.4351 11.6637 28.1909 11.0678 27.7414C10.4719 27.2918 10.0377 26.6613 9.83047 25.9442L5.71047 11.5242C5.70718 11.5134 5.70406 11.5026 5.70109 11.4917L4.17891 6.16422C4.16008 6.09902 4.12062 6.04167 4.06645 6.0008C4.01227 5.95992 3.9463 5.93771 3.87844 5.9375H1.25C1.00136 5.9375 0.762903 5.83873 0.587087 5.66291C0.411272 5.4871 0.3125 5.24864 0.3125 5C0.3125 4.75136 0.411272 4.5129 0.587087 4.33709C0.762903 4.16127 1.00136 4.0625 1.25 4.0625H3.87844C4.35344 4.06401 4.81516 4.21943 5.19439 4.50547C5.57362 4.79151 5.84992 5.19275 5.98187 5.64906L7.31437 10.3125H34.6428C34.7879 10.3125 34.9311 10.3461 35.061 10.4109C35.1908 10.4756 35.3039 10.5695 35.3913 10.6854C35.4787 10.8012 35.538 10.9358 35.5646 11.0784C35.5912 11.2211 35.5842 11.368 35.5444 11.5075H35.5442ZM33.4 12.1875H7.85L11.6334 25.4292C11.7276 25.7551 11.9249 26.0418 12.1957 26.2461C12.4666 26.4504 12.7964 26.5614 13.1356 26.5625H28.1144C28.4536 26.5614 28.7834 26.4505 29.0542 26.2462C29.325 26.0419 29.5224 25.7553 29.6166 25.4294L33.4 12.1875Z" fill="#4F4F4F"/>
</svg>
