<svg width="30" height="30" viewBox="0 0 30 30" fill="none" xmlns="http://www.w3.org/2000/svg">
<path d="M27.423 13.5321L22.1221 17.944L23.8049 24.75C23.9037 25.1302 23.8855 25.5314 23.7525 25.9011C23.6195 26.2708 23.378 26.5917 23.0596 26.8219C22.752 27.0463 22.3838 27.1726 22.0032 27.1844C21.6226 27.1961 21.2473 27.0927 20.9264 26.8877L15.0158 23.1432C14.9994 23.1341 14.992 23.1377 14.9847 23.1432L9.49149 26.6232C9.13755 26.8484 8.72401 26.9619 8.30469 26.9489C7.88538 26.9358 7.4797 26.7968 7.14047 26.55C6.78908 26.2959 6.52259 25.9416 6.37589 25.5336C6.22919 25.1255 6.20911 24.6826 6.31828 24.263L7.90219 18.0328L2.57742 13.5321C2.27579 13.2807 2.05683 12.9444 1.94906 12.5668C1.84129 12.1893 1.84971 11.788 1.97321 11.4153C2.09025 11.0479 2.31534 10.7242 2.61911 10.4866C2.92288 10.249 3.29121 10.1084 3.67606 10.0833L10.5975 9.63374L13.2177 3.09502C13.3571 2.73612 13.6016 2.42762 13.9191 2.20989C14.2367 1.99215 14.6125 1.87531 14.9975 1.87463H14.9993C15.3849 1.87469 15.7615 1.99124 16.0798 2.20901C16.398 2.42678 16.6431 2.7356 16.7828 3.09502L19.3645 9.59624L26.3243 10.0833C26.7092 10.1084 27.0775 10.2489 27.3813 10.4865C27.6851 10.7242 27.9102 11.0478 28.0273 11.4153C28.1508 11.788 28.1592 12.1893 28.0514 12.5668C27.9436 12.9444 27.7247 13.2807 27.423 13.5321Z" fill="#FCC70D"/>
</svg>
