<svg width="40" height="40" viewBox="0 0 40 40" fill="none" xmlns="http://www.w3.org/2000/svg">
<path d="M38.4372 18.7436C38.4372 18.7328 38.4359 18.722 38.4356 18.7114C38.4347 18.6865 38.4328 18.6616 38.43 18.6369C38.4284 18.6252 38.4266 18.6137 38.4247 18.602C38.4147 18.5391 38.3982 18.4773 38.3756 18.4177C38.3737 18.4123 38.3725 18.407 38.3705 18.4019L38.3638 18.3852L36.1848 12.9375C36.0237 12.5307 35.7437 12.1819 35.3813 11.9366C35.019 11.6913 34.5912 11.5609 34.1536 11.5623H28.4375V10C28.4375 9.75136 28.3387 9.5129 28.1629 9.33709C27.9871 9.16127 27.7486 9.0625 27.5 9.0625H3.75C3.17004 9.06316 2.61403 9.29384 2.20393 9.70393C1.79384 10.114 1.56316 10.67 1.5625 11.25V28.75C1.56316 29.33 1.79384 29.886 2.20393 30.2961C2.61403 30.7062 3.17004 30.9368 3.75 30.9375H6.03188C6.24811 31.9961 6.82336 32.9475 7.66032 33.6308C8.49727 34.314 9.54455 34.6872 10.625 34.6872C11.7054 34.6872 12.7527 34.314 13.5897 33.6308C14.4266 32.9475 15.0019 31.9961 15.2181 30.9375H24.7819C24.9981 31.9961 25.5734 32.9475 26.4103 33.6308C27.2473 34.314 28.2946 34.6872 29.375 34.6872C30.4554 34.6872 31.5027 34.314 32.3397 33.6308C33.1766 32.9475 33.7519 31.9961 33.9681 30.9375H36.25C36.83 30.9368 37.386 30.7062 37.7961 30.2961C38.2062 29.886 38.4368 29.33 38.4375 28.75V18.75L38.4372 18.7436ZM34.1538 13.4375C34.2162 13.4373 34.2773 13.4559 34.3291 13.491C34.3808 13.526 34.4208 13.5758 34.4437 13.6339L36.1152 17.8125H28.4375V13.4375H34.1538ZM3.75 10.9375H26.5625V21.5625H3.4375V11.25C3.43762 11.1672 3.47059 11.0877 3.52917 11.0292C3.58774 10.9706 3.66716 10.9376 3.75 10.9375ZM3.4375 28.75V23.4375H26.5625V26.2527C25.6459 26.9406 25.0126 27.94 24.7819 29.0625H15.2181C15.0019 28.0039 14.4266 27.0525 13.5897 26.3692C12.7527 25.686 11.7054 25.3127 10.625 25.3127C9.54455 25.3127 8.49727 25.686 7.66032 26.3692C6.82336 27.0525 6.24811 28.0039 6.03188 29.0625H3.75C3.66716 29.0624 3.58774 29.0294 3.52917 28.9708C3.47059 28.9123 3.43762 28.8328 3.4375 28.75ZM10.625 32.8125C10.0687 32.8125 9.52497 32.6475 9.06246 32.3385C8.59995 32.0295 8.23946 31.5902 8.02659 31.0763C7.81372 30.5624 7.75802 29.9969 7.86654 29.4513C7.97506 28.9057 8.24293 28.4046 8.63626 28.0113C9.0296 27.6179 9.53074 27.3501 10.0763 27.2415C10.6219 27.133 11.1874 27.1887 11.7013 27.4016C12.2152 27.6145 12.6545 27.9749 12.9635 28.4375C13.2725 28.9 13.4375 29.4437 13.4375 30C13.4367 30.7457 13.1401 31.4606 12.6128 31.9878C12.0856 32.5151 11.3707 32.8117 10.625 32.8125ZM29.375 32.8125C28.8187 32.8125 28.275 32.6475 27.8125 32.3385C27.3499 32.0295 26.9895 31.5902 26.7766 31.0763C26.5637 30.5624 26.508 29.9969 26.6165 29.4513C26.7251 28.9057 26.9929 28.4046 27.3863 28.0113C27.7796 27.6179 28.2807 27.3501 28.8263 27.2415C29.3719 27.133 29.9374 27.1887 30.4513 27.4016C30.9652 27.6145 31.4045 27.9749 31.7135 28.4375C32.0225 28.9 32.1875 29.4437 32.1875 30C32.1867 30.7457 31.8901 31.4606 31.3628 31.9878C30.8356 32.5151 30.1207 32.8117 29.375 32.8125ZM36.5625 28.75C36.5624 28.8328 36.5294 28.9123 36.4708 28.9708C36.4123 29.0294 36.3328 29.0624 36.25 29.0625H33.9681C33.719 27.8446 32.9965 26.7755 31.9594 26.09C30.9224 25.4045 29.6556 25.1588 28.4375 25.4069V19.6875H36.5625V28.75Z" fill="#4F4F4F"/>
</svg>
