<svg width="40" height="40" viewBox="0 0 40 40" fill="none" xmlns="http://www.w3.org/2000/svg">
<path d="M36.2401 33.1228C33.9077 29.1056 30.1724 26.0926 25.7526 24.6631C27.87 23.4033 29.5152 21.4831 30.4356 19.1976C31.356 16.9121 31.5007 14.3877 30.8473 12.012C30.194 9.63639 28.7789 7.5409 26.8192 6.04743C24.8596 4.55397 22.4639 3.74512 20 3.74512C17.5362 3.74512 15.1405 4.55397 13.1808 6.04743C11.2212 7.5409 9.80607 9.63639 9.15275 12.012C8.49943 14.3877 8.64407 16.9121 9.56446 19.1976C10.4848 21.4831 12.1301 23.4033 14.2475 24.6631C9.82772 26.0925 6.09246 29.1054 3.75996 33.1225C3.67775 33.2646 3.62434 33.4215 3.60276 33.5842C3.58119 33.747 3.59188 33.9124 3.63422 34.071C3.67657 34.2296 3.74974 34.3783 3.84956 34.5086C3.94937 34.6389 4.07388 34.7483 4.21598 34.8305C4.35807 34.9128 4.51497 34.9662 4.67771 34.9877C4.84044 35.0093 5.00584 34.9986 5.16445 34.9563C5.32305 34.9139 5.47177 34.8408 5.60209 34.741C5.73242 34.6411 5.84182 34.5166 5.92403 34.3745C7.35104 31.9042 9.40304 29.8529 11.8739 28.4268C14.3447 27.0007 17.1473 26.2499 20.0002 26.25C22.8531 26.25 25.6557 27.0008 28.1265 28.427C30.5973 29.8532 32.6493 31.9045 34.0762 34.3748C34.1584 34.5169 34.2678 34.6414 34.3981 34.7412C34.5285 34.841 34.6772 34.9142 34.8358 34.9565C34.9944 34.9989 35.1598 35.0096 35.3225 34.988C35.4852 34.9664 35.6421 34.913 35.7842 34.8308C35.9263 34.7486 36.0508 34.6392 36.1506 34.5089C36.2504 34.3785 36.3235 34.2298 36.3659 34.0712C36.4082 33.9126 36.4189 33.7472 36.3973 33.5845C36.3757 33.4218 36.3223 33.2649 36.2401 33.1228ZM11.25 15C11.25 13.2694 11.7631 11.5777 12.7246 10.1388C13.6861 8.69983 15.0526 7.57832 16.6515 6.91605C18.2503 6.25379 20.0097 6.08051 21.707 6.41813C23.4043 6.75575 24.9634 7.5891 26.1871 8.81281C27.4109 10.0365 28.2442 11.5956 28.5818 13.293C28.9195 14.9903 28.7462 16.7496 28.0839 18.3485C27.4216 19.9473 26.3001 21.3139 24.8612 22.2754C23.4223 23.2368 21.7305 23.75 20 23.75C17.6801 23.7474 15.4561 22.8246 13.8157 21.1843C12.1753 19.5439 11.2526 17.3198 11.25 15Z" fill="#4F4F4F"/>
</svg>
